<mxfile host="app.diagrams.net" modified="2023-10-02T02:40:55.906Z" agent="Mozilla/5.0 (Windows NT 10.0; Win64; x64) AppleWebKit/537.36 (KHTML, like Gecko) Chrome/115.0.0.0 Safari/537.36" etag="R1uI88iZzdQKZwn2WSCw" version="22.0.0" type="device">
  <diagram name="Страница — 1" id="F7O_pVBR3V_mQ7M6JUDe">
    <mxGraphModel dx="1434" dy="790" grid="1" gridSize="10" guides="1" tooltips="1" connect="1" arrows="1" fold="1" page="1" pageScale="1" pageWidth="827" pageHeight="1169" math="0" shadow="0">
      <root>
        <mxCell id="0" />
        <mxCell id="1" parent="0" />
        <mxCell id="8QyOq6wQm2XJHjhs2JuV-13" style="edgeStyle=orthogonalEdgeStyle;rounded=0;orthogonalLoop=1;jettySize=auto;html=1;exitX=0.5;exitY=1;exitDx=0;exitDy=0;entryX=0.5;entryY=0;entryDx=0;entryDy=0;" edge="1" parent="1" source="8QyOq6wQm2XJHjhs2JuV-1" target="8QyOq6wQm2XJHjhs2JuV-12">
          <mxGeometry relative="1" as="geometry" />
        </mxCell>
        <mxCell id="8QyOq6wQm2XJHjhs2JuV-1" value="Зарегистрироваться" style="rounded=0;whiteSpace=wrap;html=1;" vertex="1" parent="1">
          <mxGeometry x="460" y="150" width="115" height="40" as="geometry" />
        </mxCell>
        <mxCell id="8QyOq6wQm2XJHjhs2JuV-15" value="" style="edgeStyle=orthogonalEdgeStyle;rounded=0;orthogonalLoop=1;jettySize=auto;html=1;" edge="1" parent="1" source="8QyOq6wQm2XJHjhs2JuV-2" target="8QyOq6wQm2XJHjhs2JuV-14">
          <mxGeometry relative="1" as="geometry" />
        </mxCell>
        <mxCell id="8QyOq6wQm2XJHjhs2JuV-2" value="Написать в ит отдел" style="rounded=0;whiteSpace=wrap;html=1;" vertex="1" parent="1">
          <mxGeometry x="295" y="150" width="90" height="40" as="geometry" />
        </mxCell>
        <mxCell id="8QyOq6wQm2XJHjhs2JuV-11" style="edgeStyle=orthogonalEdgeStyle;rounded=0;orthogonalLoop=1;jettySize=auto;html=1;exitX=0;exitY=1;exitDx=0;exitDy=0;exitPerimeter=0;entryX=0.5;entryY=0;entryDx=0;entryDy=0;" edge="1" parent="1" source="8QyOq6wQm2XJHjhs2JuV-3" target="8QyOq6wQm2XJHjhs2JuV-2">
          <mxGeometry relative="1" as="geometry">
            <Array as="points">
              <mxPoint x="340" y="120" />
              <mxPoint x="340" y="150" />
            </Array>
          </mxGeometry>
        </mxCell>
        <mxCell id="8QyOq6wQm2XJHjhs2JuV-27" style="edgeStyle=orthogonalEdgeStyle;rounded=0;orthogonalLoop=1;jettySize=auto;html=1;exitX=1;exitY=1;exitDx=0;exitDy=0;exitPerimeter=0;entryX=0.5;entryY=0;entryDx=0;entryDy=0;" edge="1" parent="1" source="8QyOq6wQm2XJHjhs2JuV-3" target="8QyOq6wQm2XJHjhs2JuV-1">
          <mxGeometry relative="1" as="geometry">
            <Array as="points">
              <mxPoint x="530" y="120" />
              <mxPoint x="530" y="150" />
            </Array>
          </mxGeometry>
        </mxCell>
        <mxCell id="8QyOq6wQm2XJHjhs2JuV-3" value="Пользователь&lt;br&gt;" style="shape=umlActor;verticalLabelPosition=bottom;verticalAlign=top;html=1;outlineConnect=0;" vertex="1" parent="1">
          <mxGeometry x="410" y="50" width="40" height="70" as="geometry" />
        </mxCell>
        <mxCell id="8QyOq6wQm2XJHjhs2JuV-17" style="edgeStyle=orthogonalEdgeStyle;rounded=0;orthogonalLoop=1;jettySize=auto;html=1;exitX=0.5;exitY=1;exitDx=0;exitDy=0;entryX=0.5;entryY=0;entryDx=0;entryDy=0;" edge="1" parent="1" source="8QyOq6wQm2XJHjhs2JuV-12" target="8QyOq6wQm2XJHjhs2JuV-16">
          <mxGeometry relative="1" as="geometry" />
        </mxCell>
        <mxCell id="8QyOq6wQm2XJHjhs2JuV-12" value="Выбрать ведомство" style="rounded=0;whiteSpace=wrap;html=1;" vertex="1" parent="1">
          <mxGeometry x="460" y="230" width="120" height="60" as="geometry" />
        </mxCell>
        <mxCell id="8QyOq6wQm2XJHjhs2JuV-29" style="edgeStyle=orthogonalEdgeStyle;rounded=0;orthogonalLoop=1;jettySize=auto;html=1;exitX=0.5;exitY=1;exitDx=0;exitDy=0;entryX=0.5;entryY=0;entryDx=0;entryDy=0;" edge="1" parent="1" source="8QyOq6wQm2XJHjhs2JuV-14" target="8QyOq6wQm2XJHjhs2JuV-28">
          <mxGeometry relative="1" as="geometry" />
        </mxCell>
        <mxCell id="8QyOq6wQm2XJHjhs2JuV-14" value="Выбрать ведомство" style="rounded=0;whiteSpace=wrap;html=1;" vertex="1" parent="1">
          <mxGeometry x="280" y="230" width="120" height="60" as="geometry" />
        </mxCell>
        <mxCell id="8QyOq6wQm2XJHjhs2JuV-20" style="edgeStyle=orthogonalEdgeStyle;rounded=0;orthogonalLoop=1;jettySize=auto;html=1;exitX=0.5;exitY=1;exitDx=0;exitDy=0;entryX=0.5;entryY=0;entryDx=0;entryDy=0;" edge="1" parent="1" source="8QyOq6wQm2XJHjhs2JuV-16" target="8QyOq6wQm2XJHjhs2JuV-18">
          <mxGeometry relative="1" as="geometry" />
        </mxCell>
        <mxCell id="8QyOq6wQm2XJHjhs2JuV-21" style="edgeStyle=orthogonalEdgeStyle;rounded=0;orthogonalLoop=1;jettySize=auto;html=1;entryX=0.5;entryY=0;entryDx=0;entryDy=0;" edge="1" parent="1" source="8QyOq6wQm2XJHjhs2JuV-16" target="8QyOq6wQm2XJHjhs2JuV-19">
          <mxGeometry relative="1" as="geometry" />
        </mxCell>
        <mxCell id="8QyOq6wQm2XJHjhs2JuV-16" value="Вы уверены?" style="rounded=0;whiteSpace=wrap;html=1;" vertex="1" parent="1">
          <mxGeometry x="460" y="320" width="120" height="60" as="geometry" />
        </mxCell>
        <mxCell id="8QyOq6wQm2XJHjhs2JuV-25" style="edgeStyle=orthogonalEdgeStyle;rounded=0;orthogonalLoop=1;jettySize=auto;html=1;exitX=0.5;exitY=1;exitDx=0;exitDy=0;entryX=0.5;entryY=0;entryDx=0;entryDy=0;" edge="1" parent="1" source="8QyOq6wQm2XJHjhs2JuV-18" target="8QyOq6wQm2XJHjhs2JuV-24">
          <mxGeometry relative="1" as="geometry" />
        </mxCell>
        <mxCell id="8QyOq6wQm2XJHjhs2JuV-18" value="Да" style="rounded=0;whiteSpace=wrap;html=1;" vertex="1" parent="1">
          <mxGeometry x="460" y="420" width="50" height="40" as="geometry" />
        </mxCell>
        <mxCell id="8QyOq6wQm2XJHjhs2JuV-23" style="edgeStyle=orthogonalEdgeStyle;rounded=0;orthogonalLoop=1;jettySize=auto;html=1;exitX=0.5;exitY=1;exitDx=0;exitDy=0;entryX=1;entryY=0.5;entryDx=0;entryDy=0;" edge="1" parent="1" source="8QyOq6wQm2XJHjhs2JuV-19" target="8QyOq6wQm2XJHjhs2JuV-12">
          <mxGeometry relative="1" as="geometry">
            <Array as="points">
              <mxPoint x="555" y="480" />
              <mxPoint x="600" y="480" />
              <mxPoint x="600" y="260" />
            </Array>
          </mxGeometry>
        </mxCell>
        <mxCell id="8QyOq6wQm2XJHjhs2JuV-19" value="Нет" style="rounded=0;whiteSpace=wrap;html=1;" vertex="1" parent="1">
          <mxGeometry x="530" y="420" width="50" height="40" as="geometry" />
        </mxCell>
        <mxCell id="8QyOq6wQm2XJHjhs2JuV-24" value="Вы успешно зарегистрированы" style="rounded=0;whiteSpace=wrap;html=1;" vertex="1" parent="1">
          <mxGeometry x="465" y="510" width="130" height="60" as="geometry" />
        </mxCell>
        <mxCell id="8QyOq6wQm2XJHjhs2JuV-31" style="edgeStyle=orthogonalEdgeStyle;rounded=0;orthogonalLoop=1;jettySize=auto;html=1;exitX=0.5;exitY=1;exitDx=0;exitDy=0;entryX=0.5;entryY=0;entryDx=0;entryDy=0;" edge="1" parent="1" source="8QyOq6wQm2XJHjhs2JuV-28" target="8QyOq6wQm2XJHjhs2JuV-30">
          <mxGeometry relative="1" as="geometry" />
        </mxCell>
        <mxCell id="8QyOq6wQm2XJHjhs2JuV-28" value="Сообщить о неполадках" style="rounded=0;whiteSpace=wrap;html=1;" vertex="1" parent="1">
          <mxGeometry x="280" y="320" width="120" height="60" as="geometry" />
        </mxCell>
        <mxCell id="8QyOq6wQm2XJHjhs2JuV-34" style="edgeStyle=orthogonalEdgeStyle;rounded=0;orthogonalLoop=1;jettySize=auto;html=1;exitX=0.5;exitY=1;exitDx=0;exitDy=0;entryX=0.5;entryY=0;entryDx=0;entryDy=0;" edge="1" parent="1" source="8QyOq6wQm2XJHjhs2JuV-30" target="8QyOq6wQm2XJHjhs2JuV-32">
          <mxGeometry relative="1" as="geometry" />
        </mxCell>
        <mxCell id="8QyOq6wQm2XJHjhs2JuV-35" style="edgeStyle=orthogonalEdgeStyle;rounded=0;orthogonalLoop=1;jettySize=auto;html=1;exitX=0.5;exitY=1;exitDx=0;exitDy=0;" edge="1" parent="1" source="8QyOq6wQm2XJHjhs2JuV-30" target="8QyOq6wQm2XJHjhs2JuV-33">
          <mxGeometry relative="1" as="geometry" />
        </mxCell>
        <mxCell id="8QyOq6wQm2XJHjhs2JuV-30" value="Вы уверены?" style="rounded=0;whiteSpace=wrap;html=1;" vertex="1" parent="1">
          <mxGeometry x="280" y="410" width="120" height="60" as="geometry" />
        </mxCell>
        <mxCell id="8QyOq6wQm2XJHjhs2JuV-38" style="edgeStyle=orthogonalEdgeStyle;rounded=0;orthogonalLoop=1;jettySize=auto;html=1;exitX=0.5;exitY=1;exitDx=0;exitDy=0;entryX=0.5;entryY=0;entryDx=0;entryDy=0;" edge="1" parent="1" source="8QyOq6wQm2XJHjhs2JuV-32" target="8QyOq6wQm2XJHjhs2JuV-36">
          <mxGeometry relative="1" as="geometry" />
        </mxCell>
        <mxCell id="8QyOq6wQm2XJHjhs2JuV-32" value="Да" style="rounded=0;whiteSpace=wrap;html=1;" vertex="1" parent="1">
          <mxGeometry x="280" y="510" width="50" height="40" as="geometry" />
        </mxCell>
        <mxCell id="8QyOq6wQm2XJHjhs2JuV-37" style="edgeStyle=orthogonalEdgeStyle;rounded=0;orthogonalLoop=1;jettySize=auto;html=1;exitX=1;exitY=0.5;exitDx=0;exitDy=0;entryX=1;entryY=0.5;entryDx=0;entryDy=0;" edge="1" parent="1" source="8QyOq6wQm2XJHjhs2JuV-33" target="8QyOq6wQm2XJHjhs2JuV-28">
          <mxGeometry relative="1" as="geometry" />
        </mxCell>
        <mxCell id="8QyOq6wQm2XJHjhs2JuV-33" value="Нет" style="rounded=0;whiteSpace=wrap;html=1;" vertex="1" parent="1">
          <mxGeometry x="350" y="510" width="50" height="40" as="geometry" />
        </mxCell>
        <mxCell id="8QyOq6wQm2XJHjhs2JuV-36" value="Сообщение отправлено it специалистам вашего ведомства." style="rounded=0;whiteSpace=wrap;html=1;" vertex="1" parent="1">
          <mxGeometry x="280" y="590" width="130" height="60" as="geometry" />
        </mxCell>
      </root>
    </mxGraphModel>
  </diagram>
</mxfile>
